#N canvas 0 2 2730 1643 12;
#X obj 408 208 oscparse;
#X obj 371 127 netreceive -u -b 9000;
#X obj 406 294 list trim;
#X obj 451 412 route oscControl;
#N canvas 0 2 2730 1643 control1 1;
#X obj 151 129 inlet;
#X obj 143 218 route gridButton1;
#X obj 292 213 route gridButton2;
#X obj 433 214 route gridButton3;
#X obj 599 217 route gridButton4;
#X obj 735 218 route gridButton5;
#X msg 286 268 \; kick_decay 250 \; kick_pitch 1 \; kick_filter 1.5 \; kick_sine 1 \;;
#X msg 142 266 \; kick_decay 150 \; kick_pitch 0.5 \; kick_filter 1.5 \; kick_sine 1 \;;
#X msg 587 268 \; kick_decay 1500 \; kick_pitch 0.5 \; kick_filter 0.5 \; kick_sine 0.5 \;;
#X msg 434 266 \; kick_decay 450 \; kick_pitch 0.25 \; kick_filter 0.5 \; kick_sine 1 \;;
#X msg 737 268 \; kick_decay 50 \; kick_pitch 2.25 \; kick_filter 1.5 \; kick_sine 0.8 \;;
#X connect 0 0 1 0;
#X connect 0 0 2 0;
#X connect 0 0 3 0;
#X connect 0 0 4 0;
#X connect 0 0 5 0;
#X connect 1 0 7 0;
#X connect 2 0 6 0;
#X connect 3 0 9 0;
#X connect 4 0 8 0;
#X connect 5 0 10 0;
#X restore 127 893 pd control1;
#N canvas 4 84 2736 1660 bass 0;
#X floatatom 990 444 5 0 0 0 - - - 0;
#X obj 989 414 route slider1;
#X obj 340 707 dac~;
#X obj 877 566 metro 10000;
#X floatatom 995 526 5 0 0 0 - - - 0;
#X obj 877 532 route toggle2;
#X obj 877 590 s kick;
#X obj 293 476 r kick;
#X obj 293 500 bng 19 250 50 0 empty empty empty 0 -10 0 12 #fcfcfc #000000 #000000;
#N canvas 4 49 2736 1660 kick 0;
#X obj 81 151 inlet;
#X obj 256 573 phasor~;
#X obj 254 605 expr~ $v1 > 0.5;
#X obj 228 705 *~;
#X obj 82 239 f 250;
#X floatatom 429 221 5 0 0 0 - - - 0;
#N canvas 343 343 2736 1660 vol 0;
#X obj 37 37 inlet;
#X obj 54 198 vline~;
#X obj 54 222 *~;
#X msg 53 168 0.5 \, 1 5 \, 0.5 60 5 \, 0 \$1 65;
#X obj 54 246 outlet~;
#X connect 0 0 3 0;
#X connect 1 0 2 0;
#X connect 1 0 2 1;
#X connect 2 0 4 0;
#X connect 3 0 1 0;
#X restore 133 610 pd vol env;
#N canvas 4 84 2736 1660 pitch_env 0;
#X obj 37 37 inlet;
#X obj 54 198 vline~;
#X obj 54 222 *~;
#X obj 54 356 outlet~;
#X msg 53 168 1 \, 0.5 5 \, 0 \$1 5;
#X obj 54 246 *~ 80;
#X obj 54 270 +~ 29;
#X obj 54 294 mtof~;
#X connect 0 0 4 0;
#X connect 1 0 2 0;
#X connect 1 0 2 1;
#X connect 2 0 5 0;
#X connect 4 0 1 0;
#X connect 5 0 6 0;
#X connect 6 0 7 0;
#X connect 7 0 3 0;
#X restore 268 306 pd pitch_env;
#X obj 471 411 *~ 1;
#X floatatom 508 353 5 0 0 1 pitch_scale - - 0;
#X obj 254 636 vcf~ 0.5;
#X obj 446 496 *~ 1.5;
#X floatatom 600 425 5 0 0 1 filter_scale - - 0;
#X floatatom 599 497 5 0 0 1 sine_scale - - 0;
#X obj 542 538 *~ 1;
#X obj 542 562 osc~;
#X obj 431 156 inlet;
#X obj 597 279 inlet;
#X obj 645 381 inlet;
#X obj 650 483 inlet;
#X obj 228 729 outlet~;
#X connect 0 0 4 0;
#X connect 1 0 2 0;
#X connect 2 0 10 0;
#X connect 3 0 20 0;
#X connect 4 0 6 0;
#X connect 4 0 7 0;
#X connect 5 0 4 1;
#X connect 6 0 3 0;
#X connect 7 0 8 0;
#X connect 7 0 11 0;
#X connect 8 0 1 0;
#X connect 8 0 14 0;
#X connect 9 0 8 1;
#X connect 10 1 3 1;
#X connect 11 0 10 1;
#X connect 12 0 11 1;
#X connect 13 0 14 1;
#X connect 14 0 15 0;
#X connect 15 0 3 1;
#X connect 16 0 5 0;
#X connect 17 0 9 0;
#X connect 18 0 12 0;
#X connect 19 0 13 0;
#X restore 335 614 pd kick;
#X f 49;
#X floatatom 410 555 5 0 0 1 decay - - 0;
#X floatatom 504 553 5 0 0 1 pitch_scale - - 0;
#X floatatom 581 577 5 0 0 1 filter_scale - - 0;
#X floatatom 655 531 5 0 0 1 sine_scale - - 0;
#X obj 411 379 vsl 19 162 10 2000 0 0 empty kick_decay empty 0 -9 0 12 #fcfcfc #000000 #000000 0 1;
#X obj 504 357 vsl 19 162 0.1 3 0 0 empty kick_pitch empty 0 -9 0 12 #fcfcfc #000000 #000000 0 1;
#X obj 578 378 vsl 19 162 0.1 3 0 0 empty kick_filter empty 0 -9 0 12 #fcfcfc #000000 #000000 0 1;
#X obj 652 348 vsl 19 162 0.1 3 0 0 empty kick?sine empty 0 -9 0 12 #fcfcfc #000000 #000000 0 1;
#X obj 993 499 + 500;
#X obj 993 465 * 500;
#X obj 333 290 route slider4;
#X floatatom 333 338 5 0 0 0 - - - 0;
#X obj 336 647 *~;
#X obj 333 314 * 1;
#X obj 326 186 inlet;
#X obj 640 181 print;
#X connect 0 0 19 0;
#X connect 1 0 0 0;
#X connect 3 0 6 0;
#X connect 4 0 3 1;
#X connect 5 0 3 0;
#X connect 7 0 8 0;
#X connect 8 0 9 0;
#X connect 9 0 22 0;
#X connect 10 0 9 1;
#X connect 11 0 9 2;
#X connect 12 0 9 3;
#X connect 13 0 9 4;
#X connect 14 0 10 0;
#X connect 15 0 11 0;
#X connect 16 0 12 0;
#X connect 17 0 13 0;
#X connect 18 0 4 0;
#X connect 19 0 18 0;
#X connect 20 0 23 0;
#X connect 21 0 22 1;
#X connect 22 0 2 1;
#X connect 22 0 2 0;
#X connect 23 0 21 0;
#X connect 24 0 20 0;
#X connect 24 0 5 0;
#X connect 24 0 1 0;
#X connect 24 0 25 0;
#X restore 236 893 pd bass;
#N canvas 4 49 2736 1660 control2 0;
#X restore 300 895 pd control2;
#X f 12;
#N canvas 0 0 1390 1645 clap 1;
#X floatatom 990 444 5 0 0 0 - - - 0;
#X obj 340 707 dac~;
#X obj 877 566 metro 10000;
#X floatatom 995 526 5 0 0 0 - - - 0;
#X obj 292 539 bng 19 250 50 0 empty empty empty 0 -10 0 12 #fcfcfc #000000 #000000;
#X floatatom 410 555 5 0 0 1 decay - - 0;
#X floatatom 504 553 5 0 0 1 pitch_scale - - 0;
#X floatatom 581 577 5 0 0 1 filter_scale - - 0;
#X floatatom 655 531 5 0 0 1 sine_scale - - 0;
#X obj 409 376 vsl 19 162 2000 4000 0 0 empty clap_decay empty 0 -9 0 12 #fcfcfc #000000 #000000 0 1;
#X obj 504 357 vsl 19 162 3 6 0 0 empty clap_pitch empty 0 -9 0 12 #fcfcfc #000000 #000000 0 1;
#X obj 578 378 vsl 19 162 0.1 6 0 0 empty clap_filter empty 0 -9 0 12 #fcfcfc #000000 #000000 0 1;
#X obj 652 348 vsl 19 162 0.1 6 0 0 empty clap_sine empty 0 -9 0 12 #fcfcfc #000000 #000000 0 1;
#X floatatom 336 344 5 0 0 0 - - - 0;
#X obj 336 647 *~;
#X obj 333 314 * 1;
#X obj 326 186 inlet;
#X obj 877 532 route toggle3;
#X obj 877 590 s kick2;
#X obj 293 476 r kick2;
#N canvas 1357 0 1364 1645 kick2 1;
#X obj 81 151 inlet;
#X obj 256 573 phasor~;
#X obj 254 605 expr~ $v1 > 0.5;
#X obj 228 705 *~;
#X floatatom 429 221 5 0 0 0 - - - 0;
#N canvas 4 84 2736 1660 vol 0;
#X obj 37 37 inlet;
#X obj 54 198 vline~;
#X obj 54 222 *~;
#X msg 53 168 0.5 \, 1 5 \, 0.5 60 5 \, 0 \$1 65;
#X obj 54 246 outlet~;
#X connect 0 0 3 0;
#X connect 1 0 2 0;
#X connect 1 0 2 1;
#X connect 2 0 4 0;
#X connect 3 0 1 0;
#X restore 133 610 pd vol env;
#N canvas 4 84 2736 1660 pitch_env 0;
#X obj 37 37 inlet;
#X obj 54 198 vline~;
#X obj 54 222 *~;
#X obj 54 356 outlet~;
#X msg 53 168 1 \, 0.5 5 \, 0 \$1 5;
#X obj 54 246 *~ 80;
#X obj 54 270 +~ 29;
#X obj 54 294 mtof~;
#X connect 0 0 4 0;
#X connect 1 0 2 0;
#X connect 1 0 2 1;
#X connect 2 0 5 0;
#X connect 4 0 1 0;
#X connect 5 0 6 0;
#X connect 6 0 7 0;
#X connect 7 0 3 0;
#X restore 268 306 pd pitch_env;
#X obj 471 411 *~ 1;
#X floatatom 508 353 5 0 0 1 pitch_scale - - 0;
#X obj 254 636 vcf~ 0.5;
#X obj 446 496 *~ 1.5;
#X floatatom 600 425 5 0 0 1 filter_scale - - 0;
#X floatatom 599 518 5 0 0 1 sine_scale - - 0;
#X obj 542 538 *~ 1;
#X obj 542 562 osc~;
#X obj 431 156 inlet;
#X obj 597 279 inlet;
#X obj 645 381 inlet;
#X obj 650 483 inlet;
#X obj 228 729 outlet~;
#X obj 82 239 f 250;
#X connect 0 0 20 0;
#X connect 1 0 2 0;
#X connect 2 0 9 0;
#X connect 3 0 19 0;
#X connect 4 0 20 1;
#X connect 5 0 3 0;
#X connect 6 0 7 0;
#X connect 6 0 10 0;
#X connect 7 0 1 0;
#X connect 7 0 13 0;
#X connect 8 0 7 1;
#X connect 9 1 3 1;
#X connect 10 0 9 1;
#X connect 11 0 10 1;
#X connect 12 0 13 1;
#X connect 13 0 14 0;
#X connect 14 0 3 1;
#X connect 15 0 4 0;
#X connect 16 0 8 0;
#X connect 17 0 11 0;
#X connect 18 0 12 0;
#X connect 20 0 5 0;
#X connect 20 0 6 0;
#X restore 335 614 pd kick2;
#X f 49;
#X obj 1233 350 inlet;
#X obj 1225 439 route gridButton6;
#X obj 1374 434 route gridButton7;
#X msg 1709 1012 \; clap_decay 3000 \; clap_pitch 4 \; clap_filter 3 \; clap_sine 3 \;;
#X msg 1114 1013 \; clap_decay 2211 \; clap_pitch 5.236 \; clap_filter 0.5 \; clap_sine 0.576 \;;
#X obj 965 843 bng 19 250 50 0 empty empty empty 0 -10 0 12 #fcfcfc #000000 #000000;
#X obj 965 819 r kick2;
#X msg 1565 1014 \; clap_decay 2708 \; clap_pitch 372 \; clap_filter 6 \; clap_sine 4.471 \;;
#X obj 993 465 * 1000;
#X obj 989 414 route slider2;
#X obj 333 290 route slider3;
#X msg 1263 1011 \; clap_decay 2000 \; clap_pitch 3 \; clap_filter 6 \; clap_sine 6 \;;
#X msg 1415 1013 \; clap_decay 1500 \; clap_pitch 200 \; clap_filter 6 \; clap_sine 5 \;;
#X obj 993 499 + 600;
#X obj 1261 959 delay 400;
#X obj 1427 962 delay 800;
#X obj 1563 963 delay 1200;
#X obj 1709 962 delay 1600;
#X obj 1379 132 route gridButton7;
#X obj 1242 131 route gridButton6;
#X obj 1520 132 route gridButton8;
#X obj 1686 135 route gridButton9;
#X obj 1822 136 route gridButton10;
#X obj 229 539 bng 19 250 50 0 empty empty empty 0 -10 0 12 #fcfcfc #000000 #000000;
#X obj 230 476 r kick3;
#X obj 1242 155 s kick3;
#X obj 1379 156 s kick3;
#X obj 1520 156 s kick3;
#X obj 1686 159 s kick3;
#X obj 1822 160 s kick3;
#X obj 1515 435 route gridButton8;
#X obj 1681 438 route gridButton9;
#X obj 1817 439 route gridButton10;
#X msg 1220 505 \; clap_decay 10 \; clap_pitch 5.236 \; clap_filter 0 \; clap_sine 1 \;;
#X msg 1369 503 \; clap_decay 20 \; clap_pitch 3 \; clap_filter 6 \; clap_sine 6 \;;
#X msg 1521 505 \; clap_decay 30 \; clap_pitch 200 \; clap_filter 6 \; clap_sine 5 \;;
#X msg 1671 506 \; clap_decay 40 \; clap_pitch 100 \; clap_filter 6 \; clap_sine 4.471 \;;
#X msg 1815 504 \; clap_decay 40 \; clap_pitch 4 \; clap_filter 3 \; clap_sine 3 \;;
#X connect 0 0 29 0;
#X connect 2 0 18 0;
#X connect 3 0 2 1;
#X connect 4 0 20 0;
#X connect 5 0 20 1;
#X connect 6 0 20 2;
#X connect 7 0 20 3;
#X connect 8 0 20 4;
#X connect 9 0 5 0;
#X connect 10 0 6 0;
#X connect 11 0 7 0;
#X connect 12 0 8 0;
#X connect 13 0 14 1;
#X connect 14 0 1 1;
#X connect 14 0 1 0;
#X connect 15 0 13 0;
#X connect 16 0 17 0;
#X connect 16 0 30 0;
#X connect 16 0 31 0;
#X connect 16 0 40 0;
#X connect 16 0 39 0;
#X connect 16 0 41 0;
#X connect 16 0 42 0;
#X connect 16 0 43 0;
#X connect 17 0 2 0;
#X connect 19 0 4 0;
#X connect 20 0 14 0;
#X connect 21 0 22 0;
#X connect 21 0 23 0;
#X connect 21 0 51 0;
#X connect 21 0 52 0;
#X connect 21 0 53 0;
#X connect 22 0 54 0;
#X connect 23 0 55 0;
#X connect 26 0 35 0;
#X connect 26 0 36 0;
#X connect 26 0 37 0;
#X connect 26 0 25 0;
#X connect 26 0 38 0;
#X connect 27 0 26 0;
#X connect 29 0 34 0;
#X connect 30 0 0 0;
#X connect 31 0 15 0;
#X connect 34 0 3 0;
#X connect 35 0 32 0;
#X connect 36 0 33 0;
#X connect 37 0 28 0;
#X connect 38 0 24 0;
#X connect 39 0 47 0;
#X connect 40 0 46 0;
#X connect 41 0 48 0;
#X connect 42 0 49 0;
#X connect 43 0 50 0;
#X connect 44 0 20 0;
#X connect 45 0 44 0;
#X connect 51 0 56 0;
#X connect 52 0 57 0;
#X connect 53 0 58 0;
#X restore 399 897 pd clap;
#N canvas 0 2 2730 1643 sounds 1;
#X obj 173 660 phasor~;
#X obj 173 697 lop~ 6000;
#X obj 178 778 *~;
#X floatatom 173 576 5 0 0 0 - - - 0;
#X obj 173 604 mtof;
#X floatatom 173 628 5 0 0 0 - - - 0;
#X obj 284 635 line 0 3;
#X floatatom 284 659 5 0 0 0 - - - 0;
#X obj 179 834 dac~;
#X obj 283 446 bng 19 250 50 0 empty empty empty 0 -10 0 12 #fcfcfc #000000 #000000;
#X obj 283 400 route button1;
#X msg 282 553 0.05 100;
#X msg 384 570 0 100;
#X obj 505 558 phasor~;
#X obj 505 595 lop~ 6000;
#X obj 510 676 *~;
#X floatatom 505 473 5 0 0 0 - - - 0;
#X obj 505 502 mtof;
#X floatatom 505 526 5 0 0 0 - - - 0;
#X obj 608 648 line 0 3;
#X floatatom 608 672 5 0 0 0 - - - 0;
#X obj 511 732 dac~;
#X obj 608 454 bng 19 250 50 0 empty empty empty 0 -10 0 12 #fcfcfc #000000 #000000;
#X msg 606 566 0.05 100;
#X msg 708 583 0 100;
#X obj 607 413 route button2;
#X obj 807 549 phasor~;
#X obj 807 586 lop~ 6000;
#X obj 812 667 *~;
#X floatatom 807 464 5 0 0 0 - - - 0;
#X obj 807 493 mtof;
#X floatatom 807 517 5 0 0 0 - - - 0;
#X obj 910 639 line 0 3;
#X floatatom 910 663 5 0 0 0 - - - 0;
#X obj 813 723 dac~;
#X obj 910 445 bng 19 250 50 0 empty empty empty 0 -10 0 12 #fcfcfc #000000 #000000;
#X msg 908 557 0.05 100;
#X msg 1010 574 0 100;
#X obj 909 404 route button3;
#X obj 384 546 delay 300;
#X obj 708 559 delay 300;
#X obj 1010 550 delay 300;
#X obj 174 541 + 62;
#X obj 506 444 + 55;
#X obj 806 430 + 50;
#X obj 282 296 inlet;
#X obj 1001 1217 phasor~;
#X obj 1001 1254 lop~ 6000;
#X obj 1006 1335 *~;
#X floatatom 1001 1133 5 0 0 0 - - - 0;
#X obj 1001 1161 mtof;
#X floatatom 1001 1185 5 0 0 0 - - - 0;
#X obj 1112 1192 line 0 3;
#X floatatom 1112 1216 5 0 0 0 - - - 0;
#X obj 1007 1391 dac~;
#X obj 1111 1003 bng 19 250 50 0 empty empty empty 0 -10 0 12 #fcfcfc #000000 #000000;
#X obj 1333 1115 phasor~;
#X obj 1333 1152 lop~ 6000;
#X obj 1338 1233 *~;
#X floatatom 1333 1030 5 0 0 0 - - - 0;
#X obj 1333 1059 mtof;
#X floatatom 1333 1083 5 0 0 0 - - - 0;
#X obj 1436 1205 line 0 3;
#X floatatom 1436 1229 5 0 0 0 - - - 0;
#X obj 1339 1289 dac~;
#X obj 1436 1011 bng 19 250 50 0 empty empty empty 0 -10 0 12 #fcfcfc #000000 #000000;
#X msg 1434 1123 0.05 100;
#X msg 1536 1140 0 100;
#X obj 1435 970 route button2;
#X obj 1635 1106 phasor~;
#X obj 1635 1143 lop~ 6000;
#X obj 1640 1224 *~;
#X floatatom 1635 1021 5 0 0 0 - - - 0;
#X obj 1635 1050 mtof;
#X floatatom 1635 1074 5 0 0 0 - - - 0;
#X obj 1738 1196 line 0 3;
#X floatatom 1738 1220 5 0 0 0 - - - 0;
#X obj 1641 1280 dac~;
#X obj 1738 1002 bng 19 250 50 0 empty empty empty 0 -10 0 12 #fcfcfc #000000 #000000;
#X msg 1736 1114 0.05 100;
#X msg 1838 1131 0 100;
#X obj 1737 961 route button3;
#X obj 1536 1116 delay 300;
#X obj 1838 1107 delay 300;
#X obj 1334 1001 + 55;
#X obj 1634 987 + 50;
#X obj 1111 957 route gridButton11;
#X msg 1212 1127 0 50;
#X obj 1002 1098 + 70;
#X msg 1110 1110 0.05 30;
#X obj 1212 1103 delay 100;
#X connect 0 0 1 0;
#X connect 1 0 2 0;
#X connect 2 0 8 0;
#X connect 2 0 8 1;
#X connect 3 0 4 0;
#X connect 4 0 5 0;
#X connect 5 0 0 0;
#X connect 6 0 7 0;
#X connect 7 0 2 1;
#X connect 9 0 11 0;
#X connect 9 0 39 0;
#X connect 9 0 42 0;
#X connect 9 0 43 0;
#X connect 9 0 44 0;
#X connect 10 0 9 0;
#X connect 11 0 6 0;
#X connect 12 0 6 0;
#X connect 13 0 14 0;
#X connect 14 0 15 0;
#X connect 15 0 21 0;
#X connect 15 0 21 1;
#X connect 16 0 17 0;
#X connect 17 0 18 0;
#X connect 18 0 13 0;
#X connect 19 0 20 0;
#X connect 20 0 15 1;
#X connect 22 0 23 0;
#X connect 22 0 40 0;
#X connect 23 0 19 0;
#X connect 24 0 19 0;
#X connect 25 0 22 0;
#X connect 26 0 27 0;
#X connect 27 0 28 0;
#X connect 28 0 34 0;
#X connect 28 0 34 1;
#X connect 29 0 30 0;
#X connect 30 0 31 0;
#X connect 31 0 26 0;
#X connect 32 0 33 0;
#X connect 33 0 28 1;
#X connect 35 0 36 0;
#X connect 35 0 41 0;
#X connect 36 0 32 0;
#X connect 37 0 32 0;
#X connect 38 0 35 0;
#X connect 39 0 12 0;
#X connect 40 0 24 0;
#X connect 41 0 37 0;
#X connect 42 0 3 0;
#X connect 43 0 16 0;
#X connect 44 0 29 0;
#X connect 45 0 10 0;
#X connect 45 0 38 0;
#X connect 45 0 25 0;
#X connect 45 0 86 0;
#X connect 46 0 47 0;
#X connect 47 0 48 0;
#X connect 48 0 54 0;
#X connect 48 0 54 1;
#X connect 49 0 50 0;
#X connect 50 0 51 0;
#X connect 51 0 46 0;
#X connect 52 0 53 0;
#X connect 53 0 48 1;
#X connect 55 0 89 0;
#X connect 55 0 84 0;
#X connect 55 0 85 0;
#X connect 55 0 88 0;
#X connect 55 0 90 0;
#X connect 56 0 57 0;
#X connect 57 0 58 0;
#X connect 58 0 64 0;
#X connect 58 0 64 1;
#X connect 59 0 60 0;
#X connect 60 0 61 0;
#X connect 61 0 56 0;
#X connect 62 0 63 0;
#X connect 63 0 58 1;
#X connect 65 0 66 0;
#X connect 65 0 82 0;
#X connect 66 0 62 0;
#X connect 67 0 62 0;
#X connect 68 0 65 0;
#X connect 69 0 70 0;
#X connect 70 0 71 0;
#X connect 71 0 77 0;
#X connect 71 0 77 1;
#X connect 72 0 73 0;
#X connect 73 0 74 0;
#X connect 74 0 69 0;
#X connect 75 0 76 0;
#X connect 76 0 71 1;
#X connect 78 0 79 0;
#X connect 78 0 83 0;
#X connect 79 0 75 0;
#X connect 80 0 75 0;
#X connect 81 0 78 0;
#X connect 82 0 67 0;
#X connect 83 0 80 0;
#X connect 84 0 59 0;
#X connect 85 0 72 0;
#X connect 86 0 55 0;
#X connect 87 0 52 0;
#X connect 88 0 49 0;
#X connect 89 0 52 0;
#X connect 90 0 87 0;
#X restore 465 891 pd sounds;
#N canvas 0 2 2730 1643 loop 1;
#X obj 229 789 phasor~;
#X obj 229 826 lop~ 6000;
#X obj 234 907 *~;
#X floatatom 229 705 5 0 0 0 - - - 0;
#X obj 229 733 mtof;
#X floatatom 229 757 5 0 0 0 - - - 0;
#X obj 340 764 line 0 3;
#X floatatom 340 788 5 0 0 0 - - - 0;
#X obj 235 963 dac~;
#X obj 339 575 bng 19 250 50 0 empty empty empty 0 -10 0 12 #fcfcfc #000000 #000000;
#X msg 440 699 0 100;
#X obj 561 687 phasor~;
#X obj 561 724 lop~ 6000;
#X obj 566 805 *~;
#X floatatom 561 602 5 0 0 0 - - - 0;
#X obj 561 631 mtof;
#X floatatom 561 655 5 0 0 0 - - - 0;
#X obj 664 777 line 0 3;
#X floatatom 664 801 5 0 0 0 - - - 0;
#X obj 567 861 dac~;
#X obj 664 583 bng 19 250 50 0 empty empty empty 0 -10 0 12 #fcfcfc #000000 #000000;
#X msg 764 712 0 100;
#X obj 863 678 phasor~;
#X obj 863 715 lop~ 6000;
#X obj 868 796 *~;
#X floatatom 858 587 5 0 0 0 - - - 0;
#X obj 863 622 mtof;
#X floatatom 863 646 5 0 0 0 - - - 0;
#X obj 966 768 line 0 3;
#X floatatom 966 792 5 0 0 0 - - - 0;
#X obj 869 852 dac~;
#X obj 966 574 bng 19 250 50 0 empty empty empty 0 -10 0 12 #fcfcfc #000000 #000000;
#X msg 1066 703 0 100;
#X obj 440 675 delay 300;
#X obj 764 688 delay 300;
#X obj 1066 679 delay 300;
#X obj 425 368 bng 19 250 50 0 empty empty empty 0 -10 0 12 #fcfcfc #000000 #000000;
#X obj 425 308 route toggle1;
#X obj 631 511 delay 150;
#X obj 937 517 delay 300;
#X obj 425 342 metro 800;
#X obj 230 670 + 50;
#X obj 562 573 + 65;
#X obj 862 559 + 75;
#X msg 338 682 0.03 100;
#X msg 662 695 0.03 100;
#X msg 964 686 0.03 100;
#X obj 425 248 inlet;
#X floatatom 37 37 5 0 0 0 - - - 0;
#X msg 37 60;
#X connect 0 0 1 0;
#X connect 1 0 2 0;
#X connect 2 0 8 0;
#X connect 2 0 8 1;
#X connect 3 0 4 0;
#X connect 4 0 5 0;
#X connect 5 0 0 0;
#X connect 6 0 7 0;
#X connect 7 0 2 1;
#X connect 9 0 44 0;
#X connect 9 0 33 0;
#X connect 9 0 41 0;
#X connect 9 0 42 0;
#X connect 9 0 43 0;
#X connect 10 0 6 0;
#X connect 11 0 12 0;
#X connect 12 0 13 0;
#X connect 13 0 19 0;
#X connect 13 0 19 1;
#X connect 14 0 15 0;
#X connect 15 0 16 0;
#X connect 16 0 11 0;
#X connect 17 0 18 0;
#X connect 18 0 13 1;
#X connect 20 0 45 0;
#X connect 20 0 34 0;
#X connect 21 0 17 0;
#X connect 22 0 23 0;
#X connect 23 0 24 0;
#X connect 24 0 30 0;
#X connect 24 0 30 1;
#X connect 25 0 26 0;
#X connect 26 0 27 0;
#X connect 27 0 22 0;
#X connect 28 0 29 0;
#X connect 29 0 24 1;
#X connect 31 0 46 0;
#X connect 31 0 35 0;
#X connect 32 0 28 0;
#X connect 33 0 10 0;
#X connect 34 0 21 0;
#X connect 35 0 32 0;
#X connect 36 0 9 0;
#X connect 36 0 38 0;
#X connect 36 0 39 0;
#X connect 37 0 40 0;
#X connect 38 0 20 0;
#X connect 39 0 31 0;
#X connect 40 0 36 0;
#X connect 41 0 3 0;
#X connect 42 0 14 0;
#X connect 43 0 25 0;
#X connect 44 0 6 0;
#X connect 45 0 17 0;
#X connect 46 0 28 0;
#X connect 47 0 37 0;
#X connect 48 0 49 0;
#X restore 594 898 pd loop;
#X connect 0 0 2 0;
#X connect 1 0 0 0;
#X connect 2 0 3 0;
#X connect 3 0 4 0;
#X connect 3 0 5 0;
#X connect 3 0 7 0;
#X connect 3 0 8 0;
#X connect 3 0 9 0;
#X connect 3 0 7 1;
